<?xml version="1.0" encoding="UTF-8" standalone="no"?><svg xmlns="http://www.w3.org/2000/svg" xmlns:xlink="http://www.w3.org/1999/xlink" contentStyleType="text/css" height="241px" preserveAspectRatio="none" style="width:547px;height:241px;background:#FFFFFF;" version="1.1" viewBox="0 0 547 241" width="547px" zoomAndPan="magnify"><defs/><g><line style="stroke:#181818;stroke-width:0.5;stroke-dasharray:5.0,5.0;" x1="42" x2="42" y1="93.9375" y2="230.4688"/><line style="stroke:#181818;stroke-width:0.5;stroke-dasharray:5.0,5.0;" x1="244" x2="244" y1="93.9375" y2="230.4688"/><line style="stroke:#181818;stroke-width:0.5;stroke-dasharray:5.0,5.0;" x1="472" x2="472" y1="93.9375" y2="230.4688"/><text fill="#000000" font-family="sans-serif" font-size="14" lengthAdjust="spacing" textLength="68" x="5" y="90.6357">Utilisateur</text><ellipse cx="42" cy="26.1406" fill="#E2E2F0" rx="8" ry="8" style="stroke:#181818;stroke-width:0.5;"/><path d="M42,34.1406 L42,61.1406 M29,42.1406 L55,42.1406 M42,61.1406 L29,76.1406 M42,61.1406 L55,76.1406 " fill="none" style="stroke:#181818;stroke-width:0.5;"/><rect fill="#E2E2F0" height="30.2969" rx="2.5" ry="2.5" style="stroke:#181818;stroke-width:0.5;" width="310" x="89" y="62.6406"/><text fill="#000000" font-family="sans-serif" font-size="14" lengthAdjust="spacing" textLength="296" x="96" y="82.6357">dvpvc:DataVisualisationPaneViewController</text><rect fill="#E2E2F0" height="30.2969" rx="2.5" ry="2.5" style="stroke:#181818;stroke-width:0.5;" width="126" x="409" y="62.6406"/><text fill="#000000" font-family="sans-serif" font-size="14" lengthAdjust="spacing" textLength="112" x="416" y="82.6357">GraphGenerator</text><polygon fill="#181818" points="232,121.0703,242,125.0703,232,129.0703,236,125.0703" style="stroke:#181818;stroke-width:1.0;"/><line style="stroke:#181818;stroke-width:1.0;" x1="42" x2="238" y1="125.0703" y2="125.0703"/><text fill="#000000" font-family="sans-serif" font-size="13" lengthAdjust="spacing" textLength="170" x="49" y="120.0044">displayComparisonGraph()</text><polygon fill="#181818" points="460,150.2031,470,154.2031,460,158.2031,464,154.2031" style="stroke:#181818;stroke-width:1.0;"/><line style="stroke:#181818;stroke-width:1.0;" x1="244" x2="466" y1="154.2031" y2="154.2031"/><text fill="#000000" font-family="sans-serif" font-size="13" lengthAdjust="spacing" textLength="127" x="251" y="149.1372">GenerateBarChart()</text><polygon fill="#181818" points="255,179.3359,245,183.3359,255,187.3359,251,183.3359" style="stroke:#181818;stroke-width:1.0;"/><line style="stroke:#181818;stroke-width:1.0;stroke-dasharray:2.0,2.0;" x1="249" x2="471" y1="183.3359" y2="183.3359"/><text fill="#000000" font-family="sans-serif" font-size="13" lengthAdjust="spacing" textLength="56" x="261" y="178.27">barChart</text><polygon fill="#181818" points="53,208.4688,43,212.4688,53,216.4688,49,212.4688" style="stroke:#181818;stroke-width:1.0;"/><line style="stroke:#181818;stroke-width:1.0;stroke-dasharray:2.0,2.0;" x1="47" x2="243" y1="212.4688" y2="212.4688"/><text fill="#000000" font-family="sans-serif" font-size="13" lengthAdjust="spacing" textLength="147" x="59" y="207.4028">Affichage du graphique</text><rect fill="none" height="11.6406" id="_title" style="stroke:none;stroke-width:1.0;" width="155" x="384" y="5"/><text fill="#888888" font-family="sans-serif" font-size="10" lengthAdjust="spacing" textLength="155" x="384" y="14.2822">SAE S3.01 DevApp - 2024/2025</text><rect fill="none" height="11.6406" id="_title" style="stroke:none;stroke-width:1.0;" width="129" x="205" y="221.4688"/><text fill="#888888" font-family="sans-serif" font-size="10" lengthAdjust="spacing" textLength="129" x="205" y="230.751">Victor Jockin - Équipe 2B12</text><!--MD5=[0143a618be20c98f6e1d4ccec6203342]
@startuml
header SAE S3.01 DevApp - 2024/2025
actor Utilisateur as u
participant "dvpvc:DataVisualisationPaneViewController" as dvpvc
participant "GraphGenerator" as gg
u -> dvpvc : displayComparisonGraph()
dvpvc -> gg : GenerateBarChart()
dvpvc <- - gg : barChart
u <- - dvpvc : Affichage du graphique
hide footbox
footer Victor Jockin - Équipe 2B12
@enduml

PlantUML version 1.2022.7(Mon Aug 22 17:01:30 UTC 2022)
(GPL source distribution)
Java Runtime: OpenJDK Runtime Environment
JVM: OpenJDK 64-Bit Server VM
Default Encoding: UTF-8
Language: en
Country: null
--></g></svg>