<?xml version="1.0" encoding="UTF-8" standalone="no"?><svg xmlns="http://www.w3.org/2000/svg" xmlns:xlink="http://www.w3.org/1999/xlink" contentStyleType="text/css" height="417px" preserveAspectRatio="none" style="width:916px;height:417px;background:#FFFFFF;" version="1.1" viewBox="0 0 916 417" width="916px" zoomAndPan="magnify"><defs/><g><rect fill="none" height="191.9297" style="stroke:#000000;stroke-width:1.5;" width="639" x="260" y="169.2031"/><line style="stroke:#181818;stroke-width:0.5;stroke-dasharray:5.0,5.0;" x1="42" x2="42" y1="93.9375" y2="407.2656"/><line style="stroke:#181818;stroke-width:0.5;stroke-dasharray:5.0,5.0;" x1="237" x2="237" y1="93.9375" y2="407.2656"/><line style="stroke:#181818;stroke-width:0.5;stroke-dasharray:5.0,5.0;" x1="367" x2="367" y1="93.9375" y2="407.2656"/><line style="stroke:#181818;stroke-width:0.5;stroke-dasharray:5.0,5.0;" x1="522" x2="522" y1="93.9375" y2="407.2656"/><line style="stroke:#181818;stroke-width:0.5;stroke-dasharray:5.0,5.0;" x1="735" x2="735" y1="93.9375" y2="407.2656"/><text fill="#000000" font-family="sans-serif" font-size="14" lengthAdjust="spacing" textLength="68" x="5" y="90.6357">Utilisateur</text><ellipse cx="42" cy="26.1406" fill="#E2E2F0" rx="8" ry="8" style="stroke:#181818;stroke-width:0.5;"/><path d="M42,34.1406 L42,61.1406 M29,42.1406 L55,42.1406 M42,61.1406 L29,76.1406 M42,61.1406 L55,76.1406 " fill="none" style="stroke:#181818;stroke-width:0.5;"/><rect fill="#E2E2F0" height="30.2969" rx="2.5" ry="2.5" style="stroke:#181818;stroke-width:0.5;" width="46" x="214" y="62.6406"/><text fill="#000000" font-family="sans-serif" font-size="14" lengthAdjust="spacing" textLength="32" x="221" y="82.6357">Main</text><rect fill="#E2E2F0" height="30.2969" rx="2.5" ry="2.5" style="stroke:#181818;stroke-width:0.5;" width="194" x="270" y="62.6406"/><text fill="#000000" font-family="sans-serif" font-size="14" lengthAdjust="spacing" textLength="180" x="277" y="82.6357">amf:ApplicationMainFrame</text><rect fill="#D3D3D3" height="30.2969" rx="2.5" ry="2.5" style="stroke:#181818;stroke-width:0.5;" width="97" x="474" y="62.6406"/><text fill="#000000" font-family="sans-serif" font-size="14" lengthAdjust="spacing" textLength="83" x="481" y="82.6357">FXMLLoader</text><rect fill="#E2E2F0" height="30.2969" rx="2.5" ry="2.5" style="stroke:#181818;stroke-width:0.5;" width="308" x="581" y="62.6406"/><text fill="#000000" font-family="sans-serif" font-size="14" lengthAdjust="spacing" textLength="294" x="588" y="82.6357">amfvc:ApplicationMainFrameViewController</text><polygon fill="#181818" points="225,121.0703,235,125.0703,225,129.0703,229,125.0703" style="stroke:#181818;stroke-width:1.0;"/><line style="stroke:#181818;stroke-width:1.0;" x1="42" x2="231" y1="125.0703" y2="125.0703"/><text fill="#000000" font-family="sans-serif" font-size="13" lengthAdjust="spacing" textLength="171" x="49" y="120.0044">Lancement de l'application</text><polygon fill="#181818" points="355,150.2031,365,154.2031,355,158.2031,359,154.2031" style="stroke:#181818;stroke-width:1.0;"/><line style="stroke:#181818;stroke-width:1.0;" x1="237" x2="361" y1="154.2031" y2="154.2031"/><text fill="#000000" font-family="sans-serif" font-size="13" lengthAdjust="spacing" textLength="56" x="244" y="149.1372">runApp()</text><path d="M260,169.2031 L386,169.2031 L386,176.3359 L376,186.3359 L260,186.3359 L260,169.2031 " fill="#EEEEEE" style="stroke:#000000;stroke-width:1.5;"/><rect fill="none" height="191.9297" style="stroke:#000000;stroke-width:1.5;" width="639" x="260" y="169.2031"/><text fill="#000000" font-family="sans-serif" font-size="13" font-weight="bold" lengthAdjust="spacing" textLength="81" x="275" y="182.27">amf.start()</text><polygon fill="#181818" points="510.5,203.4688,520.5,207.4688,510.5,211.4688,514.5,207.4688" style="stroke:#181818;stroke-width:1.0;"/><line style="stroke:#181818;stroke-width:1.0;" x1="367" x2="516.5" y1="207.4688" y2="207.4688"/><text fill="#000000" font-family="sans-serif" font-size="13" lengthAdjust="spacing" textLength="93" x="374" y="202.4028">getController()</text><polygon fill="#181818" points="378,232.6016,368,236.6016,378,240.6016,374,236.6016" style="stroke:#181818;stroke-width:1.0;"/><line style="stroke:#181818;stroke-width:1.0;stroke-dasharray:2.0,2.0;" x1="372" x2="521.5" y1="236.6016" y2="236.6016"/><text fill="#000000" font-family="sans-serif" font-size="13" lengthAdjust="spacing" textLength="39" x="384" y="231.5356">amfvc</text><polygon fill="#181818" points="723,261.7344,733,265.7344,723,269.7344,727,265.7344" style="stroke:#181818;stroke-width:1.0;"/><line style="stroke:#181818;stroke-width:1.0;" x1="367" x2="729" y1="265.7344" y2="265.7344"/><text fill="#000000" font-family="sans-serif" font-size="13" lengthAdjust="spacing" textLength="203" x="374" y="260.6685">amfvc.setStage(amf.amfStage)</text><polygon fill="#181818" points="723,290.8672,733,294.8672,723,298.8672,727,294.8672" style="stroke:#181818;stroke-width:1.0;"/><line style="stroke:#181818;stroke-width:1.0;" x1="367" x2="729" y1="294.8672" y2="294.8672"/><text fill="#000000" font-family="sans-serif" font-size="13" lengthAdjust="spacing" textLength="226" x="374" y="289.8013">amfvc.setAmfDialogController(amf)</text><polygon fill="#181818" points="723,320,733,324,723,328,727,324" style="stroke:#181818;stroke-width:1.0;"/><line style="stroke:#181818;stroke-width:1.0;" x1="367" x2="729" y1="324" y2="324"/><text fill="#000000" font-family="sans-serif" font-size="13" lengthAdjust="spacing" textLength="133" x="374" y="318.9341">amfvc.initializeView()</text><polygon fill="#181818" points="723,349.1328,733,353.1328,723,357.1328,727,353.1328" style="stroke:#181818;stroke-width:1.0;"/><line style="stroke:#181818;stroke-width:1.0;" x1="367" x2="729" y1="353.1328" y2="353.1328"/><text fill="#000000" font-family="sans-serif" font-size="13" lengthAdjust="spacing" textLength="137" x="374" y="348.0669">amfvc.displayDialog()</text><polygon fill="#181818" points="53,385.2656,43,389.2656,53,393.2656,49,389.2656" style="stroke:#181818;stroke-width:1.0;"/><line style="stroke:#181818;stroke-width:1.0;stroke-dasharray:2.0,2.0;" x1="47" x2="734" y1="389.2656" y2="389.2656"/><text fill="#000000" font-family="sans-serif" font-size="13" lengthAdjust="spacing" textLength="182" x="59" y="384.1997">Ouverture du menu principal</text><rect fill="none" height="11.6406" id="_title" style="stroke:none;stroke-width:1.0;" width="155" x="753" y="5"/><text fill="#888888" font-family="sans-serif" font-size="10" lengthAdjust="spacing" textLength="155" x="753" y="14.2822">SAE S3.01 DevApp - 2024/2025</text><rect fill="none" height="11.6406" id="_title" style="stroke:none;stroke-width:1.0;" width="129" x="389.5" y="398.2656"/><text fill="#888888" font-family="sans-serif" font-size="10" lengthAdjust="spacing" textLength="129" x="389.5" y="407.5479">Victor Jockin - Équipe 2B12</text><!--MD5=[4cc66a03c53012df6b85f021668aa3f0]
@startuml
header SAE S3.01 DevApp - 2024/2025
actor Utilisateur as u
participant "Main" as m
participant "amf:ApplicationMainFrame" as amf
participant FXMLLoader as fl #lightgrey
participant "amfvc:ApplicationMainFrameViewController" as amfvc
u -> m : Lancement de l'application
m -> amf : runApp()
group amf.start()
    amf -> fl : getController()
    amf <- - fl : amfvc
    amf -> amfvc : amfvc.setStage(amf.amfStage)
    amf -> amfvc : amfvc.setAmfDialogController(amf)
    amf -> amfvc : amfvc.initializeView()
    amf -> amfvc : amfvc.displayDialog()
end
u <- - amfvc : Ouverture du menu principal
hide footbox
footer Victor Jockin - Équipe 2B12
@enduml

PlantUML version 1.2022.7(Mon Aug 22 17:01:30 UTC 2022)
(GPL source distribution)
Java Runtime: OpenJDK Runtime Environment
JVM: OpenJDK 64-Bit Server VM
Default Encoding: UTF-8
Language: en
Country: null
--></g></svg>