<?xml version="1.0" encoding="UTF-8" standalone="no"?><svg xmlns="http://www.w3.org/2000/svg" xmlns:xlink="http://www.w3.org/1999/xlink" contentStyleType="text/css" height="708px" preserveAspectRatio="none" style="width:1179px;height:708px;background:#FFFFFF;" version="1.1" viewBox="0 0 1179 708" width="1179px" zoomAndPan="magnify"><defs/><g><rect fill="none" height="614.9219" style="stroke:#000000;stroke-width:1.5;" width="1152" x="10" y="65.9375"/><line style="stroke:#181818;stroke-width:0.5;stroke-dasharray:5.0,5.0;" x1="81" x2="81" y1="48.9375" y2="697.8594"/><line style="stroke:#181818;stroke-width:0.5;stroke-dasharray:5.0,5.0;" x1="250" x2="250" y1="48.9375" y2="697.8594"/><line style="stroke:#181818;stroke-width:0.5;stroke-dasharray:5.0,5.0;" x1="513" x2="513" y1="48.9375" y2="697.8594"/><line style="stroke:#181818;stroke-width:0.5;stroke-dasharray:5.0,5.0;" x1="803" x2="803" y1="48.9375" y2="697.8594"/><line style="stroke:#181818;stroke-width:0.5;stroke-dasharray:5.0,5.0;" x1="990" x2="990" y1="48.9375" y2="697.8594"/><line style="stroke:#181818;stroke-width:0.5;stroke-dasharray:5.0,5.0;" x1="1120" x2="1120" y1="48.9375" y2="697.8594"/><rect fill="#E2E2F0" height="30.2969" rx="2.5" ry="2.5" style="stroke:#181818;stroke-width:0.5;" width="122" x="20" y="17.6406"/><text fill="#000000" font-family="sans-serif" font-size="14" lengthAdjust="spacing" textLength="108" x="27" y="37.6357">CsvReaderTask</text><rect fill="#E2E2F0" height="30.2969" rx="2.5" ry="2.5" style="stroke:#181818;stroke-width:0.5;" width="196" x="152" y="17.6406"/><text fill="#000000" font-family="sans-serif" font-size="14" lengthAdjust="spacing" textLength="182" x="159" y="37.6357">dvp:DataVisualisationPane</text><rect fill="#E2E2F0" height="30.2969" rx="2.5" ry="2.5" style="stroke:#181818;stroke-width:0.5;" width="310" x="358" y="17.6406"/><text fill="#000000" font-family="sans-serif" font-size="14" lengthAdjust="spacing" textLength="296" x="365" y="37.6357">dvpvc:DataVisualisationPaneViewController</text><rect fill="#E2E2F0" height="30.2969" rx="2.5" ry="2.5" style="stroke:#181818;stroke-width:0.5;" width="178" x="714" y="17.6406"/><text fill="#000000" font-family="sans-serif" font-size="14" lengthAdjust="spacing" textLength="164" x="721" y="37.6357">UpdateDataDisplayTask</text><rect fill="#E2E2F0" height="30.2969" rx="2.5" ry="2.5" style="stroke:#181818;stroke-width:0.5;" width="177" x="902" y="17.6406"/><text fill="#000000" font-family="sans-serif" font-size="14" lengthAdjust="spacing" textLength="163" x="909" y="37.6357">UpdateAlertDisplayTask</text><rect fill="#D3D3D3" height="30.2969" rx="2.5" ry="2.5" style="stroke:#181818;stroke-width:0.5;" width="63" x="1089" y="17.6406"/><text fill="#000000" font-family="sans-serif" font-size="14" lengthAdjust="spacing" textLength="49" x="1096" y="37.6357">Thread</text><path d="M10,65.9375 L87,65.9375 L87,73.0703 L77,83.0703 L10,83.0703 L10,65.9375 " fill="#EEEEEE" style="stroke:#000000;stroke-width:1.5;"/><rect fill="none" height="614.9219" style="stroke:#000000;stroke-width:1.5;" width="1152" x="10" y="65.9375"/><text fill="#000000" font-family="sans-serif" font-size="13" font-weight="bold" lengthAdjust="spacing" textLength="32" x="25" y="79.0044">loop</text><text fill="#000000" font-family="sans-serif" font-size="11" font-weight="bold" lengthAdjust="spacing" textLength="533" x="102" y="78.1479">[Exécuté périodiquement par le thread CsvReaderTask (à intervalle de temps fixe)]</text><polygon fill="#181818" points="238,100.2031,248,104.2031,238,108.2031,242,104.2031" style="stroke:#181818;stroke-width:1.0;"/><line style="stroke:#181818;stroke-width:1.0;" x1="81" x2="244" y1="104.2031" y2="104.2031"/><text fill="#000000" font-family="sans-serif" font-size="13" lengthAdjust="spacing" textLength="84" x="88" y="99.1372">dvp.setMap()</text><polygon fill="#181818" points="501,129.3359,511,133.3359,501,137.3359,505,133.3359" style="stroke:#181818;stroke-width:1.0;"/><line style="stroke:#181818;stroke-width:1.0;" x1="250" x2="507" y1="133.3359" y2="133.3359"/><text fill="#000000" font-family="sans-serif" font-size="13" lengthAdjust="spacing" textLength="173" x="257" y="128.27">dvpvc.updateDataDisplay()</text><polygon fill="#181818" points="791,158.4688,801,162.4688,791,166.4688,795,162.4688" style="stroke:#181818;stroke-width:1.0;"/><line style="stroke:#181818;stroke-width:1.0;" x1="513" x2="797" y1="162.4688" y2="162.4688"/><text fill="#000000" font-family="sans-serif" font-size="13" lengthAdjust="spacing" textLength="235" x="520" y="157.4028">new UpdateDataDisplayTask(dvp, ...)</text><polygon fill="#181818" points="524,187.6016,514,191.6016,524,195.6016,520,191.6016" style="stroke:#181818;stroke-width:1.0;"/><line style="stroke:#181818;stroke-width:1.0;stroke-dasharray:2.0,2.0;" x1="518" x2="802" y1="191.6016" y2="191.6016"/><text fill="#000000" font-family="sans-serif" font-size="13" lengthAdjust="spacing" textLength="27" x="530" y="186.5356">task</text><polygon fill="#181818" points="1108.5,216.7344,1118.5,220.7344,1108.5,224.7344,1112.5,220.7344" style="stroke:#181818;stroke-width:1.0;"/><line style="stroke:#181818;stroke-width:1.0;" x1="513" x2="1114.5" y1="220.7344" y2="220.7344"/><text fill="#000000" font-family="sans-serif" font-size="13" lengthAdjust="spacing" textLength="110" x="520" y="215.6685">new Thread(task)</text><polygon fill="#181818" points="524,245.8672,514,249.8672,524,253.8672,520,249.8672" style="stroke:#181818;stroke-width:1.0;"/><line style="stroke:#181818;stroke-width:1.0;stroke-dasharray:2.0,2.0;" x1="518" x2="1119.5" y1="249.8672" y2="249.8672"/><text fill="#000000" font-family="sans-serif" font-size="13" lengthAdjust="spacing" textLength="42" x="530" y="244.8013">thread</text><polygon fill="#181818" points="1108.5,275,1118.5,279,1108.5,283,1112.5,279" style="stroke:#181818;stroke-width:1.0;"/><line style="stroke:#181818;stroke-width:1.0;" x1="513" x2="1114.5" y1="279" y2="279"/><text fill="#000000" font-family="sans-serif" font-size="13" lengthAdjust="spacing" textLength="94" x="520" y="273.9341">thread.start() ;</text><polygon fill="#181818" points="814,304.1328,804,308.1328,814,312.1328,810,308.1328" style="stroke:#181818;stroke-width:1.0;"/><line style="stroke:#181818;stroke-width:1.0;" x1="808" x2="1119.5" y1="308.1328" y2="308.1328"/><text fill="#000000" font-family="sans-serif" font-size="13" lengthAdjust="spacing" textLength="31" x="820" y="303.0669">run()</text><polygon fill="#181818" points="261,333.2656,251,337.2656,261,341.2656,257,337.2656" style="stroke:#181818;stroke-width:1.0;"/><line style="stroke:#181818;stroke-width:1.0;" x1="255" x2="802" y1="337.2656" y2="337.2656"/><text fill="#000000" font-family="sans-serif" font-size="13" lengthAdjust="spacing" textLength="116" x="267" y="332.1997">dvp.getDataMap()</text><polygon fill="#181818" points="524,377.5313,514,381.5313,524,385.5313,520,381.5313" style="stroke:#181818;stroke-width:1.0;"/><line style="stroke:#181818;stroke-width:1.0;stroke-dasharray:2.0,2.0;" x1="518" x2="802" y1="381.5313" y2="381.5313"/><text fill="#000000" font-family="sans-serif" font-size="13" lengthAdjust="spacing" textLength="266" x="530" y="361.3325">Mise à jour de la Table View des dernières</text><text fill="#000000" font-family="sans-serif" font-size="13" lengthAdjust="spacing" textLength="180" x="530" y="376.4653">données reçues par capteur</text><polygon fill="#181818" points="238,406.6641,248,410.6641,238,414.6641,242,410.6641" style="stroke:#181818;stroke-width:1.0;"/><line style="stroke:#181818;stroke-width:1.0;" x1="81" x2="244" y1="410.6641" y2="410.6641"/><text fill="#000000" font-family="sans-serif" font-size="13" lengthAdjust="spacing" textLength="114" x="88" y="405.5981">dvp.setAlertMap()</text><polygon fill="#181818" points="501,435.7969,511,439.7969,501,443.7969,505,439.7969" style="stroke:#181818;stroke-width:1.0;"/><line style="stroke:#181818;stroke-width:1.0;" x1="250" x2="507" y1="439.7969" y2="439.7969"/><text fill="#000000" font-family="sans-serif" font-size="13" lengthAdjust="spacing" textLength="172" x="257" y="434.731">dvpvc.updateAlertDisplay()</text><polygon fill="#181818" points="978.5,464.9297,988.5,468.9297,978.5,472.9297,982.5,468.9297" style="stroke:#181818;stroke-width:1.0;"/><line style="stroke:#181818;stroke-width:1.0;" x1="513" x2="984.5" y1="468.9297" y2="468.9297"/><text fill="#000000" font-family="sans-serif" font-size="13" lengthAdjust="spacing" textLength="234" x="520" y="463.8638">new UpdateAlertDisplayTask(dvp, ...)</text><polygon fill="#181818" points="524,494.0625,514,498.0625,524,502.0625,520,498.0625" style="stroke:#181818;stroke-width:1.0;"/><line style="stroke:#181818;stroke-width:1.0;stroke-dasharray:2.0,2.0;" x1="518" x2="989.5" y1="498.0625" y2="498.0625"/><text fill="#000000" font-family="sans-serif" font-size="13" lengthAdjust="spacing" textLength="27" x="530" y="492.9966">task</text><polygon fill="#181818" points="1108.5,523.1953,1118.5,527.1953,1108.5,531.1953,1112.5,527.1953" style="stroke:#181818;stroke-width:1.0;"/><line style="stroke:#181818;stroke-width:1.0;" x1="513" x2="1114.5" y1="527.1953" y2="527.1953"/><text fill="#000000" font-family="sans-serif" font-size="13" lengthAdjust="spacing" textLength="110" x="520" y="522.1294">new Thread(task)</text><polygon fill="#181818" points="524,552.3281,514,556.3281,524,560.3281,520,556.3281" style="stroke:#181818;stroke-width:1.0;"/><line style="stroke:#181818;stroke-width:1.0;stroke-dasharray:2.0,2.0;" x1="518" x2="1119.5" y1="556.3281" y2="556.3281"/><text fill="#000000" font-family="sans-serif" font-size="13" lengthAdjust="spacing" textLength="42" x="530" y="551.2622">thread</text><polygon fill="#181818" points="1108.5,581.4609,1118.5,585.4609,1108.5,589.4609,1112.5,585.4609" style="stroke:#181818;stroke-width:1.0;"/><line style="stroke:#181818;stroke-width:1.0;" x1="513" x2="1114.5" y1="585.4609" y2="585.4609"/><text fill="#000000" font-family="sans-serif" font-size="13" lengthAdjust="spacing" textLength="94" x="520" y="580.395">thread.start() ;</text><polygon fill="#181818" points="1001.5,610.5938,991.5,614.5938,1001.5,618.5938,997.5,614.5938" style="stroke:#181818;stroke-width:1.0;"/><line style="stroke:#181818;stroke-width:1.0;" x1="995.5" x2="1119.5" y1="614.5938" y2="614.5938"/><text fill="#000000" font-family="sans-serif" font-size="13" lengthAdjust="spacing" textLength="31" x="1007.5" y="609.5278">run()</text><polygon fill="#181818" points="261,639.7266,251,643.7266,261,647.7266,257,643.7266" style="stroke:#181818;stroke-width:1.0;"/><line style="stroke:#181818;stroke-width:1.0;" x1="255" x2="989.5" y1="643.7266" y2="643.7266"/><text fill="#000000" font-family="sans-serif" font-size="13" lengthAdjust="spacing" textLength="115" x="267" y="638.6606">dvp.getAlertMap()</text><polygon fill="#181818" points="524,668.8594,514,672.8594,524,676.8594,520,672.8594" style="stroke:#181818;stroke-width:1.0;"/><line style="stroke:#181818;stroke-width:1.0;stroke-dasharray:2.0,2.0;" x1="518" x2="989.5" y1="672.8594" y2="672.8594"/><text fill="#000000" font-family="sans-serif" font-size="13" lengthAdjust="spacing" textLength="217" x="530" y="667.7935">Mise à jour du conteneur d'alertes</text><rect fill="none" height="11.6406" id="_title" style="stroke:none;stroke-width:1.0;" width="155" x="1016" y="5"/><text fill="#888888" font-family="sans-serif" font-size="10" lengthAdjust="spacing" textLength="155" x="1016" y="14.2822">SAE S3.01 DevApp - 2024/2025</text><rect fill="none" height="11.6406" id="_title" style="stroke:none;stroke-width:1.0;" width="129" x="521" y="688.8594"/><text fill="#888888" font-family="sans-serif" font-size="10" lengthAdjust="spacing" textLength="129" x="521" y="698.1416">Victor Jockin - Équipe 2B12</text><!--MD5=[06d4611f1fd2ae7bfc3e26691ad762b4]
@startuml
header SAE S3.01 DevApp - 2024/2025
participant "CsvReaderTask" as csvrt
participant "dvp:DataVisualisationPane" as dvp
participant "dvpvc:DataVisualisationPaneViewController" as dvpvc
participant "UpdateDataDisplayTask" as uddt
participant "UpdateAlertDisplayTask" as uadt
participant "Thread" as thread #lightgrey
loop Exécuté périodiquement par le thread CsvReaderTask (à intervalle de temps fixe)
    csvrt -> dvp : dvp.setMap()
    dvp -> dvpvc : dvpvc.updateDataDisplay()
    dvpvc -> uddt : new UpdateDataDisplayTask(dvp, ...)
    dvpvc <- - uddt : task
    dvpvc -> thread : new Thread(task)
    dvpvc <- - thread : thread
    dvpvc -> thread : thread.start() ;
    thread -> uddt : run()
    uddt -> dvp : dvp.getDataMap()
    dvpvc <- - uddt : Mise à jour de la Table View des dernières\ndonnées reçues par capteur
    csvrt -> dvp : dvp.setAlertMap()
    dvp -> dvpvc : dvpvc.updateAlertDisplay()
    dvpvc -> uadt : new UpdateAlertDisplayTask(dvp, ...)
    dvpvc <- - uadt : task
    dvpvc -> thread : new Thread(task)
    dvpvc <- - thread : thread
    dvpvc -> thread : thread.start() ;
    thread -> uadt : run()
    uadt -> dvp : dvp.getAlertMap()
    dvpvc <- - uadt : Mise à jour du conteneur d'alertes
end
hide footbox
footer Victor Jockin - Équipe 2B12
@enduml

PlantUML version 1.2022.7(Mon Aug 22 17:01:30 UTC 2022)
(GPL source distribution)
Java Runtime: OpenJDK Runtime Environment
JVM: OpenJDK 64-Bit Server VM
Default Encoding: UTF-8
Language: en
Country: null
--></g></svg>