<?xml version="1.0" encoding="UTF-8" standalone="no"?><svg xmlns="http://www.w3.org/2000/svg" xmlns:xlink="http://www.w3.org/1999/xlink" contentStyleType="text/css" height="545px" preserveAspectRatio="none" style="width:1008px;height:545px;background:#FFFFFF;" version="1.1" viewBox="0 0 1008 545" width="1008px" zoomAndPan="magnify"><defs/><g><line style="stroke:#181818;stroke-width:0.5;stroke-dasharray:5.0,5.0;" x1="42" x2="42" y1="93.9375" y2="534.7969"/><line style="stroke:#181818;stroke-width:0.5;stroke-dasharray:5.0,5.0;" x1="238" x2="238" y1="93.9375" y2="534.7969"/><line style="stroke:#181818;stroke-width:0.5;stroke-dasharray:5.0,5.0;" x1="490" x2="490" y1="93.9375" y2="534.7969"/><line style="stroke:#181818;stroke-width:0.5;stroke-dasharray:5.0,5.0;" x1="703" x2="703" y1="93.9375" y2="534.7969"/><line style="stroke:#181818;stroke-width:0.5;stroke-dasharray:5.0,5.0;" x1="911" x2="911" y1="93.9375" y2="534.7969"/><text fill="#000000" font-family="sans-serif" font-size="14" lengthAdjust="spacing" textLength="68" x="5" y="90.6357">Utilisateur</text><ellipse cx="42" cy="26.1406" fill="#E2E2F0" rx="8" ry="8" style="stroke:#181818;stroke-width:0.5;"/><path d="M42,34.1406 L42,61.1406 M29,42.1406 L55,42.1406 M42,61.1406 L29,76.1406 M42,61.1406 L55,76.1406 " fill="none" style="stroke:#181818;stroke-width:0.5;"/><rect fill="#E2E2F0" height="30.2969" rx="2.5" ry="2.5" style="stroke:#181818;stroke-width:0.5;" width="299" x="89" y="62.6406"/><text fill="#000000" font-family="sans-serif" font-size="14" lengthAdjust="spacing" textLength="285" x="96" y="82.6357">cffvc:ConfigurationFileFormViewController</text><rect fill="#E2E2F0" height="30.2969" rx="2.5" ry="2.5" style="stroke:#181818;stroke-width:0.5;" width="185" x="398" y="62.6406"/><text fill="#000000" font-family="sans-serif" font-size="14" lengthAdjust="spacing" textLength="171" x="405" y="82.6357">cff:ConfigurationFileForm</text><rect fill="#E2E2F0" height="30.2969" rx="2.5" ry="2.5" style="stroke:#181818;stroke-width:0.5;" width="153" x="627" y="62.6406"/><text fill="#000000" font-family="sans-serif" font-size="14" lengthAdjust="spacing" textLength="139" x="634" y="82.6357">config:Configuration</text><rect fill="#E2E2F0" height="30.2969" rx="2.5" ry="2.5" style="stroke:#181818;stroke-width:0.5;" width="169" x="827" y="62.6406"/><text fill="#000000" font-family="sans-serif" font-size="14" lengthAdjust="spacing" textLength="155" x="834" y="82.6357">ConfigurationFileWriter</text><polygon fill="#181818" points="226.5,121.0703,236.5,125.0703,226.5,129.0703,230.5,125.0703" style="stroke:#181818;stroke-width:1.0;"/><line style="stroke:#181818;stroke-width:1.0;" x1="42" x2="232.5" y1="125.0703" y2="125.0703"/><text fill="#000000" font-family="sans-serif" font-size="13" lengthAdjust="spacing" textLength="58" x="49" y="120.0044">doSave()</text><polygon fill="#181818" points="478.5,150.2031,488.5,154.2031,478.5,158.2031,482.5,154.2031" style="stroke:#181818;stroke-width:1.0;"/><line style="stroke:#181818;stroke-width:1.0;" x1="238.5" x2="484.5" y1="154.2031" y2="154.2031"/><text fill="#000000" font-family="sans-serif" font-size="13" lengthAdjust="spacing" textLength="165" x="245.5" y="149.1372">enregistrerConfiguration()</text><polygon fill="#181818" points="691.5,179.3359,701.5,183.3359,691.5,187.3359,695.5,183.3359" style="stroke:#181818;stroke-width:1.0;"/><line style="stroke:#181818;stroke-width:1.0;" x1="490.5" x2="697.5" y1="183.3359" y2="183.3359"/><text fill="#000000" font-family="sans-serif" font-size="13" lengthAdjust="spacing" textLength="85" x="497.5" y="178.27">getInstance()</text><polygon fill="#181818" points="501.5,208.4688,491.5,212.4688,501.5,216.4688,497.5,212.4688" style="stroke:#181818;stroke-width:1.0;"/><line style="stroke:#181818;stroke-width:1.0;stroke-dasharray:2.0,2.0;" x1="495.5" x2="702.5" y1="212.4688" y2="212.4688"/><text fill="#000000" font-family="sans-serif" font-size="13" lengthAdjust="spacing" textLength="38" x="507.5" y="207.4028">config</text><polygon fill="#181818" points="691.5,237.6016,701.5,241.6016,691.5,245.6016,695.5,241.6016" style="stroke:#181818;stroke-width:1.0;"/><line style="stroke:#181818;stroke-width:1.0;" x1="490.5" x2="697.5" y1="241.6016" y2="241.6016"/><text fill="#000000" font-family="sans-serif" font-size="13" lengthAdjust="spacing" textLength="111" x="497.5" y="236.5356">config.setName()</text><polygon fill="#181818" points="691.5,266.7344,701.5,270.7344,691.5,274.7344,695.5,270.7344" style="stroke:#181818;stroke-width:1.0;"/><line style="stroke:#181818;stroke-width:1.0;" x1="490.5" x2="697.5" y1="270.7344" y2="270.7344"/><text fill="#000000" font-family="sans-serif" font-size="13" lengthAdjust="spacing" textLength="140" x="497.5" y="265.6685">config.setTopicPrefix()</text><polygon fill="#181818" points="691.5,295.8672,701.5,299.8672,691.5,303.8672,695.5,299.8672" style="stroke:#181818;stroke-width:1.0;"/><line style="stroke:#181818;stroke-width:1.0;" x1="490.5" x2="697.5" y1="299.8672" y2="299.8672"/><text fill="#000000" font-family="sans-serif" font-size="13" lengthAdjust="spacing" textLength="142" x="497.5" y="294.8013">config.setSubjectList()</text><polygon fill="#181818" points="691.5,325,701.5,329,691.5,333,695.5,329" style="stroke:#181818;stroke-width:1.0;"/><line style="stroke:#181818;stroke-width:1.0;" x1="490.5" x2="697.5" y1="329" y2="329"/><text fill="#000000" font-family="sans-serif" font-size="13" lengthAdjust="spacing" textLength="155" x="497.5" y="323.9341">config.setDataTypeList()</text><polygon fill="#181818" points="691.5,354.1328,701.5,358.1328,691.5,362.1328,695.5,358.1328" style="stroke:#181818;stroke-width:1.0;"/><line style="stroke:#181818;stroke-width:1.0;" x1="490.5" x2="697.5" y1="358.1328" y2="358.1328"/><text fill="#000000" font-family="sans-serif" font-size="13" lengthAdjust="spacing" textLength="161" x="497.5" y="353.0669">config.setThresholdMap()</text><polygon fill="#181818" points="691.5,383.2656,701.5,387.2656,691.5,391.2656,695.5,387.2656" style="stroke:#181818;stroke-width:1.0;"/><line style="stroke:#181818;stroke-width:1.0;" x1="490.5" x2="697.5" y1="387.2656" y2="387.2656"/><text fill="#000000" font-family="sans-serif" font-size="13" lengthAdjust="spacing" textLength="189" x="497.5" y="382.1997">config.setReadingFrequency()</text><polygon fill="#181818" points="691.5,412.3984,701.5,416.3984,691.5,420.3984,695.5,416.3984" style="stroke:#181818;stroke-width:1.0;"/><line style="stroke:#181818;stroke-width:1.0;" x1="490.5" x2="697.5" y1="416.3984" y2="416.3984"/><text fill="#000000" font-family="sans-serif" font-size="13" lengthAdjust="spacing" textLength="114" x="497.5" y="411.3325">config.createFile()</text><polygon fill="#181818" points="899.5,441.5313,909.5,445.5313,899.5,449.5313,903.5,445.5313" style="stroke:#181818;stroke-width:1.0;"/><line style="stroke:#181818;stroke-width:1.0;" x1="703.5" x2="905.5" y1="445.5313" y2="445.5313"/><text fill="#000000" font-family="sans-serif" font-size="13" lengthAdjust="spacing" textLength="184" x="710.5" y="440.4653">writeConfigurationFile(config)</text><line style="stroke:#181818;stroke-width:1.0;" x1="238.5" x2="280.5" y1="474.6641" y2="474.6641"/><line style="stroke:#181818;stroke-width:1.0;" x1="280.5" x2="280.5" y1="474.6641" y2="487.6641"/><line style="stroke:#181818;stroke-width:1.0;" x1="239.5" x2="280.5" y1="487.6641" y2="487.6641"/><polygon fill="#181818" points="249.5,483.6641,239.5,487.6641,249.5,491.6641,245.5,487.6641" style="stroke:#181818;stroke-width:1.0;"/><text fill="#000000" font-family="sans-serif" font-size="13" lengthAdjust="spacing" textLength="61" x="245.5" y="469.5981">doClose()</text><polygon fill="#181818" points="53,512.7969,43,516.7969,53,520.7969,49,516.7969" style="stroke:#181818;stroke-width:1.0;"/><line style="stroke:#181818;stroke-width:1.0;stroke-dasharray:2.0,2.0;" x1="47" x2="237.5" y1="516.7969" y2="516.7969"/><text fill="#000000" font-family="sans-serif" font-size="13" lengthAdjust="spacing" textLength="156" x="59" y="511.731">Fermeture du formulaire</text><rect fill="none" height="11.6406" id="_title" style="stroke:none;stroke-width:1.0;" width="155" x="845" y="5"/><text fill="#888888" font-family="sans-serif" font-size="10" lengthAdjust="spacing" textLength="155" x="845" y="14.2822">SAE S3.01 DevApp - 2024/2025</text><rect fill="none" height="11.6406" id="_title" style="stroke:none;stroke-width:1.0;" width="129" x="435.5" y="525.7969"/><text fill="#888888" font-family="sans-serif" font-size="10" lengthAdjust="spacing" textLength="129" x="435.5" y="535.0791">Victor Jockin - Équipe 2B12</text><!--MD5=[1e58780d2d07ff1324d100084b85346d]
@startuml
header SAE S3.01 DevApp - 2024/2025
actor Utilisateur as u
participant "cffvc:ConfigurationFileFormViewController" as cffvc
participant "cff:ConfigurationFileForm" as cff
participant "config:Configuration" as config
participant "ConfigurationFileWriter" as cfw
u -> cffvc : doSave()
cff <- cffvc : enregistrerConfiguration()
cff -> config : getInstance()
cff <- - config : config
cff -> config : config.setName()
cff -> config : config.setTopicPrefix()
cff -> config : config.setSubjectList()
cff -> config : config.setDataTypeList()
cff -> config : config.setThresholdMap()
cff -> config : config.setReadingFrequency()
cff -> config : config.createFile()
config -> cfw : writeConfigurationFile(config)
cffvc -> cffvc : doClose()
u <- - cffvc : Fermeture du formulaire
hide footbox
footer Victor Jockin - Équipe 2B12
@enduml

PlantUML version 1.2022.7(Mon Aug 22 17:01:30 UTC 2022)
(GPL source distribution)
Java Runtime: OpenJDK Runtime Environment
JVM: OpenJDK 64-Bit Server VM
Default Encoding: UTF-8
Language: en
Country: null
--></g></svg>