<?xml version="1.0" encoding="UTF-8" standalone="no"?><svg xmlns="http://www.w3.org/2000/svg" xmlns:xlink="http://www.w3.org/1999/xlink" contentStyleType="text/css" height="474px" preserveAspectRatio="none" style="width:1318px;height:474px;background:#FFFFFF;" version="1.1" viewBox="0 0 1318 474" width="1318px" zoomAndPan="magnify"><defs/><g><line style="stroke:#181818;stroke-width:0.5;stroke-dasharray:5.0,5.0;" x1="42" x2="42" y1="93.9375" y2="463.5313"/><line style="stroke:#181818;stroke-width:0.5;stroke-dasharray:5.0,5.0;" x1="243" x2="243" y1="93.9375" y2="463.5313"/><line style="stroke:#181818;stroke-width:0.5;stroke-dasharray:5.0,5.0;" x1="504" x2="504" y1="93.9375" y2="463.5313"/><line style="stroke:#181818;stroke-width:0.5;stroke-dasharray:5.0,5.0;" x1="797.5" x2="797.5" y1="93.9375" y2="463.5313"/><line style="stroke:#181818;stroke-width:0.5;stroke-dasharray:5.0,5.0;" x1="948.5" x2="948.5" y1="93.9375" y2="463.5313"/><line style="stroke:#181818;stroke-width:0.5;stroke-dasharray:5.0,5.0;" x1="1156.5" x2="1156.5" y1="93.9375" y2="463.5313"/><text fill="#000000" font-family="sans-serif" font-size="14" lengthAdjust="spacing" textLength="68" x="5" y="90.6357">Utilisateur</text><ellipse cx="42" cy="26.1406" fill="#E2E2F0" rx="8" ry="8" style="stroke:#181818;stroke-width:0.5;"/><path d="M42,34.1406 L42,61.1406 M29,42.1406 L55,42.1406 M42,61.1406 L29,76.1406 M42,61.1406 L55,76.1406 " fill="none" style="stroke:#181818;stroke-width:0.5;"/><rect fill="#E2E2F0" height="30.2969" rx="2.5" ry="2.5" style="stroke:#181818;stroke-width:0.5;" width="308" x="89" y="62.6406"/><text fill="#000000" font-family="sans-serif" font-size="14" lengthAdjust="spacing" textLength="294" x="96" y="82.6357">amfvc:ApplicationMainFrameViewController</text><rect fill="#E2E2F0" height="30.2969" rx="2.5" ry="2.5" style="stroke:#181818;stroke-width:0.5;" width="194" x="407" y="62.6406"/><text fill="#000000" font-family="sans-serif" font-size="14" lengthAdjust="spacing" textLength="180" x="414" y="82.6357">amf:ApplicationMainFrame</text><rect fill="#E2E2F0" height="30.2969" rx="2.5" ry="2.5" style="stroke:#181818;stroke-width:0.5;" width="185" x="705.5" y="62.6406"/><text fill="#000000" font-family="sans-serif" font-size="14" lengthAdjust="spacing" textLength="171" x="712.5" y="82.6357">cff:ConfigurationFileForm</text><rect fill="#D3D3D3" height="30.2969" rx="2.5" ry="2.5" style="stroke:#181818;stroke-width:0.5;" width="97" x="900.5" y="62.6406"/><text fill="#000000" font-family="sans-serif" font-size="14" lengthAdjust="spacing" textLength="83" x="907.5" y="82.6357">FXMLLoader</text><rect fill="#E2E2F0" height="30.2969" rx="2.5" ry="2.5" style="stroke:#181818;stroke-width:0.5;" width="299" x="1007.5" y="62.6406"/><text fill="#000000" font-family="sans-serif" font-size="14" lengthAdjust="spacing" textLength="285" x="1014.5" y="82.6357">cffvc:ConfigurationFileFormViewController</text><polygon fill="#181818" points="231,121.0703,241,125.0703,231,129.0703,235,125.0703" style="stroke:#181818;stroke-width:1.0;"/><line style="stroke:#181818;stroke-width:1.0;" x1="42" x2="237" y1="125.0703" y2="125.0703"/><text fill="#000000" font-family="sans-serif" font-size="13" lengthAdjust="spacing" textLength="111" x="49" y="120.0044">doConfiguration()</text><polygon fill="#181818" points="492,150.2031,502,154.2031,492,158.2031,496,154.2031" style="stroke:#181818;stroke-width:1.0;"/><line style="stroke:#181818;stroke-width:1.0;" x1="243" x2="498" y1="154.2031" y2="154.2031"/><text fill="#000000" font-family="sans-serif" font-size="13" lengthAdjust="spacing" textLength="197" x="250" y="149.1372">amf.parametrerConfiguration()</text><polygon fill="#181818" points="786,179.3359,796,183.3359,786,187.3359,790,183.3359" style="stroke:#181818;stroke-width:1.0;"/><line style="stroke:#181818;stroke-width:1.0;" x1="504" x2="792" y1="183.3359" y2="183.3359"/><text fill="#000000" font-family="sans-serif" font-size="13" lengthAdjust="spacing" textLength="270" x="511" y="178.27">new ConfigurationFileForm(amf.amfStage)</text><polygon fill="#181818" points="937,208.4688,947,212.4688,937,216.4688,941,212.4688" style="stroke:#181818;stroke-width:1.0;"/><line style="stroke:#181818;stroke-width:1.0;" x1="798" x2="943" y1="212.4688" y2="212.4688"/><text fill="#000000" font-family="sans-serif" font-size="13" lengthAdjust="spacing" textLength="93" x="805" y="207.4028">getController()</text><polygon fill="#181818" points="809,237.6016,799,241.6016,809,245.6016,805,241.6016" style="stroke:#181818;stroke-width:1.0;"/><line style="stroke:#181818;stroke-width:1.0;stroke-dasharray:2.0,2.0;" x1="803" x2="948" y1="241.6016" y2="241.6016"/><text fill="#000000" font-family="sans-serif" font-size="13" lengthAdjust="spacing" textLength="29" x="815" y="236.5356">cffvc</text><polygon fill="#181818" points="1145,266.7344,1155,270.7344,1145,274.7344,1149,270.7344" style="stroke:#181818;stroke-width:1.0;"/><line style="stroke:#181818;stroke-width:1.0;" x1="798" x2="1151" y1="270.7344" y2="270.7344"/><text fill="#000000" font-family="sans-serif" font-size="13" lengthAdjust="spacing" textLength="193" x="805" y="265.6685">cffvc.setStage(amf.amfStage)</text><polygon fill="#181818" points="1145,295.8672,1155,299.8672,1145,303.8672,1149,299.8672" style="stroke:#181818;stroke-width:1.0;"/><line style="stroke:#181818;stroke-width:1.0;" x1="798" x2="1151" y1="299.8672" y2="299.8672"/><text fill="#000000" font-family="sans-serif" font-size="13" lengthAdjust="spacing" textLength="216" x="805" y="294.8013">cffvc.setAmfDialogController(amf)</text><polygon fill="#181818" points="1145,325,1155,329,1145,333,1149,329" style="stroke:#181818;stroke-width:1.0;"/><line style="stroke:#181818;stroke-width:1.0;" x1="798" x2="1151" y1="329" y2="329"/><text fill="#000000" font-family="sans-serif" font-size="13" lengthAdjust="spacing" textLength="123" x="805" y="323.9341">cffvc.initializeView()</text><polygon fill="#181818" points="515,354.1328,505,358.1328,515,362.1328,511,358.1328" style="stroke:#181818;stroke-width:1.0;"/><line style="stroke:#181818;stroke-width:1.0;stroke-dasharray:2.0,2.0;" x1="509" x2="797" y1="358.1328" y2="358.1328"/><text fill="#000000" font-family="sans-serif" font-size="13" lengthAdjust="spacing" textLength="15" x="521" y="353.0669">cff</text><polygon fill="#181818" points="786,383.2656,796,387.2656,786,391.2656,790,387.2656" style="stroke:#181818;stroke-width:1.0;"/><line style="stroke:#181818;stroke-width:1.0;" x1="504" x2="792" y1="387.2656" y2="387.2656"/><text fill="#000000" font-family="sans-serif" font-size="13" lengthAdjust="spacing" textLength="224" x="511" y="382.1997">cff.doConfigurationFileFormDialog()</text><polygon fill="#181818" points="1145,412.3984,1155,416.3984,1145,420.3984,1149,416.3984" style="stroke:#181818;stroke-width:1.0;"/><line style="stroke:#181818;stroke-width:1.0;" x1="798" x2="1151" y1="416.3984" y2="416.3984"/><text fill="#000000" font-family="sans-serif" font-size="13" lengthAdjust="spacing" textLength="127" x="805" y="411.3325">cffvc.displayDialog()</text><polygon fill="#181818" points="53,441.5313,43,445.5313,53,449.5313,49,445.5313" style="stroke:#181818;stroke-width:1.0;"/><line style="stroke:#181818;stroke-width:1.0;stroke-dasharray:2.0,2.0;" x1="47" x2="1156" y1="445.5313" y2="445.5313"/><text fill="#000000" font-family="sans-serif" font-size="13" lengthAdjust="spacing" textLength="383" x="59" y="440.4653">Ouverture du formulaire de paramétrage de la configuration</text><rect fill="none" height="11.6406" id="_title" style="stroke:none;stroke-width:1.0;" width="155" x="1155.5" y="5"/><text fill="#888888" font-family="sans-serif" font-size="10" lengthAdjust="spacing" textLength="155" x="1155.5" y="14.2822">SAE S3.01 DevApp - 2024/2025</text><rect fill="none" height="11.6406" id="_title" style="stroke:none;stroke-width:1.0;" width="129" x="590.75" y="454.5313"/><text fill="#888888" font-family="sans-serif" font-size="10" lengthAdjust="spacing" textLength="129" x="590.75" y="463.8135">Victor Jockin - Équipe 2B12</text><!--MD5=[a62805f274ebe251c5f94cc22b443096]
@startuml
header SAE S3.01 DevApp - 2024/2025
actor Utilisateur as u
participant "amfvc:ApplicationMainFrameViewController" as amfvc
participant "amf:ApplicationMainFrame" as amf
participant "cff:ConfigurationFileForm" as cff
participant FXMLLoader as fl #lightgrey
participant "cffvc:ConfigurationFileFormViewController" as cffvc
u -> amfvc : doConfiguration()
amfvc -> amf : amf.parametrerConfiguration()
amf -> cff : new ConfigurationFileForm(amf.amfStage)
cff -> fl : getController()
cff <- - fl : cffvc
cff -> cffvc : cffvc.setStage(amf.amfStage)
cff -> cffvc : cffvc.setAmfDialogController(amf)
cff -> cffvc : cffvc.initializeView()
amf <- - cff : cff
amf -> cff : cff.doConfigurationFileFormDialog()
cff -> cffvc : cffvc.displayDialog()
u <- - cffvc : Ouverture du formulaire de paramétrage de la configuration
hide footbox
footer Victor Jockin - Équipe 2B12
@enduml

PlantUML version 1.2022.7(Mon Aug 22 17:01:30 UTC 2022)
(GPL source distribution)
Java Runtime: OpenJDK Runtime Environment
JVM: OpenJDK 64-Bit Server VM
Default Encoding: UTF-8
Language: en
Country: null
--></g></svg>