<?xml version="1.0" encoding="UTF-8" standalone="no"?><svg xmlns="http://www.w3.org/2000/svg" xmlns:xlink="http://www.w3.org/1999/xlink" contentStyleType="text/css" height="652px" preserveAspectRatio="none" style="width:1698px;height:652px;background:#FFFFFF;" version="1.1" viewBox="0 0 1698 652" width="1698px" zoomAndPan="magnify"><defs/><g><rect fill="none" height="426.9922" style="stroke:#000000;stroke-width:1.5;" width="1671" x="10" y="198.3359"/><rect fill="none" height="46.2656" style="stroke:#000000;stroke-width:1.5;" width="892" x="779" y="542.9297"/><line style="stroke:#181818;stroke-width:0.5;stroke-dasharray:5.0,5.0;" x1="57" x2="57" y1="93.9375" y2="642.3281"/><line style="stroke:#181818;stroke-width:0.5;stroke-dasharray:5.0,5.0;" x1="258" x2="258" y1="93.9375" y2="642.3281"/><line style="stroke:#181818;stroke-width:0.5;stroke-dasharray:5.0,5.0;" x1="519" x2="519" y1="93.9375" y2="642.3281"/><line style="stroke:#181818;stroke-width:0.5;stroke-dasharray:5.0,5.0;" x1="702" x2="702" y1="93.9375" y2="642.3281"/><line style="stroke:#181818;stroke-width:0.5;stroke-dasharray:5.0,5.0;" x1="887" x2="887" y1="93.9375" y2="642.3281"/><line style="stroke:#181818;stroke-width:0.5;stroke-dasharray:5.0,5.0;" x1="1043" x2="1043" y1="93.9375" y2="642.3281"/><line style="stroke:#181818;stroke-width:0.5;stroke-dasharray:5.0,5.0;" x1="1257" x2="1257" y1="93.9375" y2="642.3281"/><line style="stroke:#181818;stroke-width:0.5;stroke-dasharray:5.0,5.0;" x1="1475" x2="1475" y1="93.9375" y2="642.3281"/><line style="stroke:#181818;stroke-width:0.5;stroke-dasharray:5.0,5.0;" x1="1600" x2="1600" y1="93.9375" y2="642.3281"/><text fill="#000000" font-family="sans-serif" font-size="14" lengthAdjust="spacing" textLength="68" x="20" y="90.6357">Utilisateur</text><ellipse cx="57" cy="26.1406" fill="#E2E2F0" rx="8" ry="8" style="stroke:#181818;stroke-width:0.5;"/><path d="M57,34.1406 L57,61.1406 M44,42.1406 L70,42.1406 M57,61.1406 L44,76.1406 M57,61.1406 L70,76.1406 " fill="none" style="stroke:#181818;stroke-width:0.5;"/><rect fill="#E2E2F0" height="30.2969" rx="2.5" ry="2.5" style="stroke:#181818;stroke-width:0.5;" width="308" x="104" y="62.6406"/><text fill="#000000" font-family="sans-serif" font-size="14" lengthAdjust="spacing" textLength="294" x="111" y="82.6357">amfvc:ApplicationMainFrameViewController</text><rect fill="#E2E2F0" height="30.2969" rx="2.5" ry="2.5" style="stroke:#181818;stroke-width:0.5;" width="194" x="422" y="62.6406"/><text fill="#000000" font-family="sans-serif" font-size="14" lengthAdjust="spacing" textLength="180" x="429" y="82.6357">amf:ApplicationMainFrame</text><rect fill="#E2E2F0" height="30.2969" rx="2.5" ry="2.5" style="stroke:#181818;stroke-width:0.5;" width="153" x="626" y="62.6406"/><text fill="#000000" font-family="sans-serif" font-size="14" lengthAdjust="spacing" textLength="139" x="633" y="82.6357">config:Configuration</text><rect fill="#E2E2F0" height="30.2969" rx="2.5" ry="2.5" style="stroke:#181818;stroke-width:0.5;" width="196" x="789" y="62.6406"/><text fill="#000000" font-family="sans-serif" font-size="14" lengthAdjust="spacing" textLength="182" x="796" y="82.6357">dvp:DataVisualisationPane</text><rect fill="#D3D3D3" height="30.2969" rx="2.5" ry="2.5" style="stroke:#181818;stroke-width:0.5;" width="97" x="995" y="62.6406"/><text fill="#000000" font-family="sans-serif" font-size="14" lengthAdjust="spacing" textLength="83" x="1002" y="82.6357">FXMLLoader</text><rect fill="#E2E2F0" height="30.2969" rx="2.5" ry="2.5" style="stroke:#181818;stroke-width:0.5;" width="310" x="1102" y="62.6406"/><text fill="#000000" font-family="sans-serif" font-size="14" lengthAdjust="spacing" textLength="296" x="1109" y="82.6357">dvpvc:DataVisualisationPaneViewController</text><rect fill="#E2E2F0" height="30.2969" rx="2.5" ry="2.5" style="stroke:#181818;stroke-width:0.5;" width="107" x="1422" y="62.6406"/><text fill="#000000" font-family="sans-serif" font-size="14" lengthAdjust="spacing" textLength="93" x="1429" y="82.6357">DataCollector</text><rect fill="#E2E2F0" height="30.2969" rx="2.5" ry="2.5" style="stroke:#181818;stroke-width:0.5;" width="122" x="1539" y="62.6406"/><text fill="#000000" font-family="sans-serif" font-size="14" lengthAdjust="spacing" textLength="108" x="1546" y="82.6357">CsvReaderTask</text><polygon fill="#181818" points="246,121.0703,256,125.0703,246,129.0703,250,125.0703" style="stroke:#181818;stroke-width:1.0;"/><line style="stroke:#181818;stroke-width:1.0;" x1="57" x2="252" y1="125.0703" y2="125.0703"/><text fill="#000000" font-family="sans-serif" font-size="13" lengthAdjust="spacing" textLength="144" x="64" y="120.0044">doVisualiserDonnees()</text><polygon fill="#181818" points="690.5,150.2031,700.5,154.2031,690.5,158.2031,694.5,154.2031" style="stroke:#181818;stroke-width:1.0;"/><line style="stroke:#181818;stroke-width:1.0;" x1="258" x2="696.5" y1="154.2031" y2="154.2031"/><text fill="#000000" font-family="sans-serif" font-size="13" lengthAdjust="spacing" textLength="69" x="265" y="149.1372">isDefined()</text><polygon fill="#181818" points="269,179.3359,259,183.3359,269,187.3359,265,183.3359" style="stroke:#181818;stroke-width:1.0;"/><line style="stroke:#181818;stroke-width:1.0;stroke-dasharray:2.0,2.0;" x1="263" x2="701.5" y1="183.3359" y2="183.3359"/><text fill="#000000" font-family="sans-serif" font-size="13" lengthAdjust="spacing" textLength="59" x="275" y="178.27">isDefined</text><path d="M10,198.3359 L74,198.3359 L74,205.4688 L64,215.4688 L10,215.4688 L10,198.3359 " fill="#EEEEEE" style="stroke:#000000;stroke-width:1.5;"/><rect fill="none" height="426.9922" style="stroke:#000000;stroke-width:1.5;" width="1671" x="10" y="198.3359"/><text fill="#000000" font-family="sans-serif" font-size="13" font-weight="bold" lengthAdjust="spacing" textLength="19" x="25" y="211.4028">alt</text><text fill="#000000" font-family="sans-serif" font-size="11" font-weight="bold" lengthAdjust="spacing" textLength="123" x="89" y="210.5464">[isDefined == true]</text><polygon fill="#181818" points="507,232.6016,517,236.6016,507,240.6016,511,236.6016" style="stroke:#181818;stroke-width:1.0;"/><line style="stroke:#181818;stroke-width:1.0;" x1="258" x2="513" y1="236.6016" y2="236.6016"/><text fill="#000000" font-family="sans-serif" font-size="13" lengthAdjust="spacing" textLength="155" x="265" y="231.5356">amf.visualiserDonnees()</text><polygon fill="#181818" points="875,261.7344,885,265.7344,875,269.7344,879,265.7344" style="stroke:#181818;stroke-width:1.0;"/><line style="stroke:#181818;stroke-width:1.0;" x1="519" x2="881" y1="265.7344" y2="265.7344"/><text fill="#000000" font-family="sans-serif" font-size="13" lengthAdjust="spacing" textLength="274" x="526" y="260.6685">new DataVisualisationPane(amf.amfStage)</text><polygon fill="#181818" points="1031.5,290.8672,1041.5,294.8672,1031.5,298.8672,1035.5,294.8672" style="stroke:#181818;stroke-width:1.0;"/><line style="stroke:#181818;stroke-width:1.0;" x1="887" x2="1037.5" y1="294.8672" y2="294.8672"/><text fill="#000000" font-family="sans-serif" font-size="13" lengthAdjust="spacing" textLength="93" x="894" y="289.8013">getController()</text><polygon fill="#181818" points="898,320,888,324,898,328,894,324" style="stroke:#181818;stroke-width:1.0;"/><line style="stroke:#181818;stroke-width:1.0;stroke-dasharray:2.0,2.0;" x1="892" x2="1042.5" y1="324" y2="324"/><text fill="#000000" font-family="sans-serif" font-size="13" lengthAdjust="spacing" textLength="37" x="904" y="318.9341">dvpvc</text><polygon fill="#181818" points="1245,349.1328,1255,353.1328,1245,357.1328,1249,353.1328" style="stroke:#181818;stroke-width:1.0;"/><line style="stroke:#181818;stroke-width:1.0;" x1="887" x2="1251" y1="353.1328" y2="353.1328"/><text fill="#000000" font-family="sans-serif" font-size="13" lengthAdjust="spacing" textLength="201" x="894" y="348.0669">dvpvc.setStage(amf.amfStage)</text><polygon fill="#181818" points="1245,378.2656,1255,382.2656,1245,386.2656,1249,382.2656" style="stroke:#181818;stroke-width:1.0;"/><line style="stroke:#181818;stroke-width:1.0;" x1="887" x2="1251" y1="382.2656" y2="382.2656"/><text fill="#000000" font-family="sans-serif" font-size="13" lengthAdjust="spacing" textLength="224" x="894" y="377.1997">dvpvc.setAmfDialogController(amf)</text><polygon fill="#181818" points="1245,407.3984,1255,411.3984,1245,415.3984,1249,411.3984" style="stroke:#181818;stroke-width:1.0;"/><line style="stroke:#181818;stroke-width:1.0;" x1="887" x2="1251" y1="411.3984" y2="411.3984"/><text fill="#000000" font-family="sans-serif" font-size="13" lengthAdjust="spacing" textLength="131" x="894" y="406.3325">dvpvc.initializeView()</text><polygon fill="#181818" points="1463.5,436.5313,1473.5,440.5313,1463.5,444.5313,1467.5,440.5313" style="stroke:#181818;stroke-width:1.0;"/><line style="stroke:#181818;stroke-width:1.0;" x1="1257" x2="1469.5" y1="440.5313" y2="440.5313"/><text fill="#000000" font-family="sans-serif" font-size="13" lengthAdjust="spacing" textLength="152" x="1264" y="435.4653">startCollectionProcess()</text><polygon fill="#181818" points="530,465.6641,520,469.6641,530,473.6641,526,469.6641" style="stroke:#181818;stroke-width:1.0;"/><line style="stroke:#181818;stroke-width:1.0;stroke-dasharray:2.0,2.0;" x1="524" x2="886" y1="469.6641" y2="469.6641"/><text fill="#000000" font-family="sans-serif" font-size="13" lengthAdjust="spacing" textLength="23" x="536" y="464.5981">dvp</text><polygon fill="#181818" points="875,494.7969,885,498.7969,875,502.7969,879,498.7969" style="stroke:#181818;stroke-width:1.0;"/><line style="stroke:#181818;stroke-width:1.0;" x1="519" x2="881" y1="498.7969" y2="498.7969"/><text fill="#000000" font-family="sans-serif" font-size="13" lengthAdjust="spacing" textLength="236" x="526" y="493.731">dvp.doDataVisualisationPaneDialog()</text><polygon fill="#181818" points="1245,523.9297,1255,527.9297,1245,531.9297,1249,527.9297" style="stroke:#181818;stroke-width:1.0;"/><line style="stroke:#181818;stroke-width:1.0;" x1="887" x2="1251" y1="527.9297" y2="527.9297"/><text fill="#000000" font-family="sans-serif" font-size="13" lengthAdjust="spacing" textLength="135" x="894" y="522.8638">dvpvc.displayDialog()</text><path d="M779,542.9297 L1001,542.9297 L1001,550.0625 L991,560.0625 L779,560.0625 L779,542.9297 " fill="#EEEEEE" style="stroke:#000000;stroke-width:1.5;"/><rect fill="none" height="46.2656" style="stroke:#000000;stroke-width:1.5;" width="892" x="779" y="542.9297"/><text fill="#000000" font-family="sans-serif" font-size="13" font-weight="bold" lengthAdjust="spacing" textLength="177" x="794" y="555.9966">startCsvReaderThread()</text><polygon fill="#181818" points="1588,577.1953,1598,581.1953,1588,585.1953,1592,581.1953" style="stroke:#181818;stroke-width:1.0;"/><line style="stroke:#181818;stroke-width:1.0;" x1="887" x2="1594" y1="581.1953" y2="581.1953"/><text fill="#000000" font-family="sans-serif" font-size="13" lengthAdjust="spacing" textLength="177" x="894" y="576.1294">new CsvReaderTask(dvp, ';')</text><polygon fill="#181818" points="68,613.3281,58,617.3281,68,621.3281,64,617.3281" style="stroke:#181818;stroke-width:1.0;"/><line style="stroke:#181818;stroke-width:1.0;stroke-dasharray:2.0,2.0;" x1="62" x2="1256" y1="617.3281" y2="617.3281"/><text fill="#000000" font-family="sans-serif" font-size="13" lengthAdjust="spacing" textLength="189" x="74" y="612.2622">Ouverture du tableau de bord</text><rect fill="none" height="11.6406" id="_title" style="stroke:none;stroke-width:1.0;" width="155" x="1535" y="5"/><text fill="#888888" font-family="sans-serif" font-size="10" lengthAdjust="spacing" textLength="155" x="1535" y="14.2822">SAE S3.01 DevApp - 2024/2025</text><rect fill="none" height="11.6406" id="_title" style="stroke:none;stroke-width:1.0;" width="129" x="780.5" y="633.3281"/><text fill="#888888" font-family="sans-serif" font-size="10" lengthAdjust="spacing" textLength="129" x="780.5" y="642.6104">Victor Jockin - Équipe 2B12</text><!--MD5=[8af71eeaee2ccf96e00212d7db73fd3a]
@startuml
header SAE S3.01 DevApp - 2024/2025
actor Utilisateur as u
participant "amfvc:ApplicationMainFrameViewController" as amfvc
participant "amf:ApplicationMainFrame" as amf
participant "config:Configuration" as config
participant "dvp:DataVisualisationPane" as dvp
participant FXMLLoader as fl #lightgrey
participant "dvpvc:DataVisualisationPaneViewController" as dvpvc
participant "DataCollector" as dc
participant "CsvReaderTask" as csvrt
u -> amfvc : doVisualiserDonnees()
amfvc -> config : isDefined()
amfvc <- - config : isDefined
alt isDefined == true
    amfvc -> amf : amf.visualiserDonnees()
    amf -> dvp : new DataVisualisationPane(amf.amfStage)
    dvp -> fl : getController()
    dvp <- - fl : dvpvc
    dvp -> dvpvc : dvpvc.setStage(amf.amfStage)
    dvp -> dvpvc : dvpvc.setAmfDialogController(amf)
    dvp -> dvpvc : dvpvc.initializeView()
    dvpvc -> dc : startCollectionProcess()
    amf <- - dvp : dvp
    amf -> dvp : dvp.doDataVisualisationPaneDialog()
    dvp -> dvpvc : dvpvc.displayDialog()
    group startCsvReaderThread()
        dvp -> csvrt : new CsvReaderTask(dvp, ';')
    end
    u <- - dvpvc : Ouverture du tableau de bord
end
hide footbox
footer Victor Jockin - Équipe 2B12
@enduml

PlantUML version 1.2022.7(Mon Aug 22 17:01:30 UTC 2022)
(GPL source distribution)
Java Runtime: OpenJDK Runtime Environment
JVM: OpenJDK 64-Bit Server VM
Default Encoding: UTF-8
Language: en
Country: null
--></g></svg>