<?xml version="1.0" encoding="UTF-8" standalone="no"?><svg xmlns="http://www.w3.org/2000/svg" xmlns:xlink="http://www.w3.org/1999/xlink" contentStyleType="text/css" height="388px" preserveAspectRatio="none" style="width:429px;height:388px;background:#FFFFFF;" version="1.1" viewBox="0 0 429 388" width="429px" zoomAndPan="magnify"><defs/><g><rect fill="none" height="133.6641" style="stroke:#000000;stroke-width:1.5;" width="402" x="10" y="227.4688"/><line style="stroke:#181818;stroke-width:0.5;stroke-dasharray:5.0,5.0;" x1="57" x2="57" y1="93.9375" y2="378.1328"/><line style="stroke:#181818;stroke-width:0.5;stroke-dasharray:5.0,5.0;" x1="365" x2="365" y1="93.9375" y2="378.1328"/><text fill="#000000" font-family="sans-serif" font-size="14" lengthAdjust="spacing" textLength="68" x="20" y="90.6357">Utilisateur</text><ellipse cx="57" cy="26.1406" fill="#E2E2F0" rx="8" ry="8" style="stroke:#181818;stroke-width:0.5;"/><path d="M57,34.1406 L57,61.1406 M44,42.1406 L70,42.1406 M57,61.1406 L44,76.1406 M57,61.1406 L70,76.1406 " fill="none" style="stroke:#181818;stroke-width:0.5;"/><rect fill="#E2E2F0" height="30.2969" rx="2.5" ry="2.5" style="stroke:#181818;stroke-width:0.5;" width="74" x="328" y="62.6406"/><text fill="#000000" font-family="sans-serif" font-size="14" lengthAdjust="spacing" textLength="60" x="335" y="82.6357">Système</text><polygon fill="#181818" points="353,121.0703,363,125.0703,353,129.0703,357,125.0703" style="stroke:#181818;stroke-width:1.0;"/><line style="stroke:#181818;stroke-width:1.0;" x1="57" x2="359" y1="125.0703" y2="125.0703"/><text fill="#000000" font-family="sans-serif" font-size="13" lengthAdjust="spacing" textLength="180" x="64" y="120.0044">Création d'une configuration</text><polygon fill="#181818" points="68,150.2031,58,154.2031,68,158.2031,64,154.2031" style="stroke:#181818;stroke-width:1.0;"/><line style="stroke:#181818;stroke-width:1.0;stroke-dasharray:2.0,2.0;" x1="62" x2="364" y1="154.2031" y2="154.2031"/><text fill="#000000" font-family="sans-serif" font-size="13" lengthAdjust="spacing" textLength="221" x="74" y="149.1372">Enregistrement de la configuration</text><polygon fill="#181818" points="353,179.3359,363,183.3359,353,187.3359,357,183.3359" style="stroke:#181818;stroke-width:1.0;"/><line style="stroke:#181818;stroke-width:1.0;" x1="57" x2="359" y1="183.3359" y2="183.3359"/><text fill="#000000" font-family="sans-serif" font-size="13" lengthAdjust="spacing" textLength="189" x="64" y="178.27">Ouverture du tableau de bord</text><polygon fill="#181818" points="68,208.4688,58,212.4688,68,216.4688,64,212.4688" style="stroke:#181818;stroke-width:1.0;"/><line style="stroke:#181818;stroke-width:1.0;stroke-dasharray:2.0,2.0;" x1="62" x2="364" y1="212.4688" y2="212.4688"/><text fill="#000000" font-family="sans-serif" font-size="13" lengthAdjust="spacing" textLength="232" x="74" y="207.4028">Affichage des données des capteurs</text><path d="M10,227.4688 L225,227.4688 L225,234.6016 L215,244.6016 L10,244.6016 L10,227.4688 " fill="#EEEEEE" style="stroke:#000000;stroke-width:1.5;"/><rect fill="none" height="133.6641" style="stroke:#000000;stroke-width:1.5;" width="402" x="10" y="227.4688"/><text fill="#000000" font-family="sans-serif" font-size="13" font-weight="bold" lengthAdjust="spacing" textLength="170" x="25" y="240.5356">Actions indépendantes</text><polygon fill="#181818" points="353,261.7344,363,265.7344,353,269.7344,357,265.7344" style="stroke:#181818;stroke-width:1.0;"/><line style="stroke:#181818;stroke-width:1.0;" x1="57" x2="359" y1="265.7344" y2="265.7344"/><text fill="#000000" font-family="sans-serif" font-size="13" lengthAdjust="spacing" textLength="284" x="64" y="260.6685">Sélection d'un sujet et d'un type de données</text><polygon fill="#181818" points="68,290.8672,58,294.8672,68,298.8672,64,294.8672" style="stroke:#181818;stroke-width:1.0;"/><line style="stroke:#181818;stroke-width:1.0;stroke-dasharray:2.0,2.0;" x1="62" x2="364" y1="294.8672" y2="294.8672"/><text fill="#000000" font-family="sans-serif" font-size="13" lengthAdjust="spacing" textLength="231" x="74" y="289.8013">Affichage d'un graphique d'évolution</text><polygon fill="#181818" points="353,320,363,324,353,328,357,324" style="stroke:#181818;stroke-width:1.0;"/><line style="stroke:#181818;stroke-width:1.0;" x1="57" x2="359" y1="324" y2="324"/><text fill="#000000" font-family="sans-serif" font-size="13" lengthAdjust="spacing" textLength="201" x="64" y="318.9341">Sélection d'un type de données</text><polygon fill="#181818" points="68,349.1328,58,353.1328,68,357.1328,64,353.1328" style="stroke:#181818;stroke-width:1.0;"/><line style="stroke:#181818;stroke-width:1.0;stroke-dasharray:2.0,2.0;" x1="62" x2="364" y1="353.1328" y2="353.1328"/><text fill="#000000" font-family="sans-serif" font-size="13" lengthAdjust="spacing" textLength="275" x="74" y="348.0669">Affichage d'un diagramme de comparaison</text><rect fill="none" height="11.6406" id="_title" style="stroke:none;stroke-width:1.0;" width="155" x="266" y="5"/><text fill="#888888" font-family="sans-serif" font-size="10" lengthAdjust="spacing" textLength="155" x="266" y="14.2822">SAE S3.01 DevApp - 2024/2025</text><rect fill="none" height="11.6406" id="_title" style="stroke:none;stroke-width:1.0;" width="129" x="146" y="369.1328"/><text fill="#888888" font-family="sans-serif" font-size="10" lengthAdjust="spacing" textLength="129" x="146" y="378.415">Victor Jockin - Équipe 2B12</text><!--MD5=[65f487ee588a29b7d1d2cfb983a997d3]
@startuml
header SAE S3.01 DevApp - 2024/2025
actor Utilisateur   as u
participant Système as s
u ->  s : Création d'une configuration
u <- - s : Enregistrement de la configuration
u ->  s : Ouverture du tableau de bord
u <- - s : Affichage des données des capteurs
group Actions indépendantes
    u ->  s : Sélection d'un sujet et d'un type de données
    u <- - s : Affichage d'un graphique d'évolution
    u ->  s : Sélection d'un type de données
    u <- - s : Affichage d'un diagramme de comparaison
end
hide footbox
footer Victor Jockin - Équipe 2B12
@enduml

PlantUML version 1.2022.7(Mon Aug 22 17:01:30 UTC 2022)
(GPL source distribution)
Java Runtime: OpenJDK Runtime Environment
JVM: OpenJDK 64-Bit Server VM
Default Encoding: UTF-8
Language: en
Country: null
--></g></svg>